<?xml version="1.0" encoding="utf-8"?>
<!-- Generator: Adobe Illustrator 15.0.0, SVG Export Plug-In . SVG Version: 6.00 Build 0)  -->
<!DOCTYPE svg PUBLIC "-//W3C//DTD SVG 1.1//EN" "http://www.w3.org/Graphics/SVG/1.1/DTD/svg11.dtd">
<svg version="1.1" id="Layer_1" xmlns="http://www.w3.org/2000/svg" xmlns:xlink="http://www.w3.org/1999/xlink" x="0px" y="0px"
	 width="475px" height="115px" viewBox="0 0 475 115" enable-background="new 0 0 475 115" xml:space="preserve">
<path fill="#3B4F56" d="M245.322,49.109V31.942c0-2.146,1.43-4.054,3.814-4.054h0.715c2.385,0,3.815,1.908,3.815,4.054v36.24
	c0,8.821-4.292,15.975-11.922,20.267c-3.576,2.146-7.391,3.1-11.444,3.1h-1.669c-8.821,0-15.975-4.292-20.267-11.922
	c-2.146-3.576-3.099-7.391-3.099-11.444v-1.669c0-8.821,4.291-15.974,11.921-20.266c3.576-2.146,7.392-3.1,11.444-3.1h1.669
	C236.023,43.148,241.03,45.532,245.322,49.109 M213.135,67.468c0,6.438,3.099,11.206,8.583,14.306
	c2.146,1.191,4.769,1.907,7.391,1.907c6.199,0,10.968-2.861,14.067-8.345c1.431-2.385,2.146-5.246,2.146-8.107
	c0-5.483-2.623-9.775-7.153-13.113c-2.623-1.907-5.722-2.861-9.061-2.861c-6.914,0-11.683,3.338-14.782,9.536
	C213.611,62.938,213.135,65.084,213.135,67.468 M281.801,43.148h1.192c9.537,0,16.689,4.53,21.22,12.875
	c1.907,3.338,2.861,6.915,2.861,10.729v1.67c0,8.821-4.292,15.975-11.922,20.266c-3.576,2.146-7.391,3.1-11.444,3.1h-1.907
	c-8.821,0-15.975-4.292-20.266-11.922c-2.146-3.576-3.1-7.391-3.1-11.443v-1.67c0-8.821,4.291-15.736,11.921-20.266
	C273.933,44.102,277.748,43.148,281.801,43.148 M266.542,67.468c0,6.198,3.1,10.729,8.345,14.067
	c2.384,1.43,5.245,2.146,8.106,2.146c6.199,0,10.729-3.1,13.829-8.345c1.43-2.385,2.146-5.246,2.146-8.107
	c0-5.722-2.861-10.251-7.63-13.351c-2.623-1.669-5.483-2.623-8.583-2.623c-6.915,0-11.683,3.338-14.782,9.536
	C267.019,62.938,266.542,65.084,266.542,67.468 M340.931,51.97c-1.192-0.477-3.576-0.715-4.769-0.715
	c-6.914-0.238-11.683,3.577-14.544,9.537c-0.954,2.146-1.431,4.293-1.431,6.677c0,6.914,3.576,11.921,10.014,14.782
	c2.385,1.191,5.246,1.191,7.63,1.191c2.146,0,5.245-1.43,7.152-2.145l0.239-0.239h1.43h0.239c1.907,0.478,3.338,1.669,3.338,3.577
	v0.715c0,5.007-9.061,6.199-12.637,6.438c-12.16,0.953-21.458-5.961-24.797-17.405c-0.715-1.907-0.953-4.054-0.953-6.199v-1.669
	c0-8.821,4.292-15.736,11.921-20.266c3.576-2.146,7.392-3.1,11.444-3.1h1.669c4.292,0,8.346,1.192,11.922,3.577l0.238,0.238
	l0.238,0.238c0.477,0.715,0.716,1.431,0.716,2.146v0.715c0,2.146-1.669,3.1-3.339,3.576h-0.238h-0.477
	C344.745,53.639,341.885,52.447,340.931,51.97 M367.396,57.453c3.1-3.099,6.438-6.437,9.537-9.537
	c0.954-0.954,4.292-4.53,5.723-4.53h1.431h0.238c1.907,0.477,3.338,1.669,3.338,3.576v0.715c0,1.431-1.669,2.861-2.385,3.815
	c-1.907,1.907-3.814,3.814-5.722,5.96l-9.775,10.015c4.292,4.292,8.583,8.583,12.637,12.875c1.191,1.192,2.384,2.384,3.576,3.576
	c0.477,0.478,0.954,0.954,1.431,1.431s0.477,1.191,0.477,1.907v0.954v0.238c-0.477,1.907-1.669,3.338-3.814,3.338h-0.716
	c-1.431,0-2.86-1.431-3.814-2.385c-1.907-1.907-3.815-3.576-5.723-5.483l-6.198-6.199v9.775c0,2.146-1.432,4.054-3.815,4.054h-0.954
	c-2.384,0-3.814-1.908-3.814-4.054V32.181c0-2.146,1.431-4.053,3.814-4.053h0.716c2.384,0,3.814,1.907,3.814,4.053V57.453z
	 M468.965,43.387h0.716c2.384,0,4.053,1.669,4.053,4.053c0,3.338-3.338,4.292-5.96,4.292c-3.576,0-7.153,2.146-9.775,4.769
	c-3.1,3.1-4.53,7.152-4.53,11.444v19.79c0,2.146-1.431,4.053-3.815,4.053h-0.715c-2.385,0-3.814-1.907-3.814-4.053V66.752
	c0-8.105,3.814-14.543,10.49-19.074C459.667,44.817,464.197,43.387,468.965,43.387 M411.027,82.488
	c2.861,0.954,6.438,0.954,9.299,0.477c1.669-0.715,5.484-2.384,6.914-2.146h0.239h0.238c0.953,0.478,1.669,0.954,2.146,1.907
	c0.954,2.146,0.477,4.292-1.431,5.484l-0.715,0.477c-7.63,4.53-15.975,3.814-23.604-0.238c-3.576-1.908-6.438-5.007-8.583-8.584
	l-0.478-0.953c-5.007-8.584-4.291-17.644,1.192-25.75c1.907-2.861,4.53-5.007,7.392-6.676l1.192-0.715
	c7.391-4.292,15.021-3.815,22.65-0.239c4.053,1.908,7.391,5.007,9.537,8.822l0.477,0.715c1.669,2.861-0.477,5.245-2.623,6.915
	c-2.622,1.906-5.007,4.291-7.63,6.438C421.757,73.189,416.273,77.959,411.027,82.488 M403.875,77.72
	c5.961-5.245,12.16-10.491,18.12-15.497c2.146-1.67,4.292-3.576,6.438-5.484c-1.669-2.146-4.291-3.576-6.676-4.53
	c-4.769-1.908-9.299-1.192-13.59,1.192c-5.723,3.338-8.106,8.345-7.868,15.021c0,2.622,0.715,5.006,2.146,7.152
	C402.921,76.289,403.398,77.004,403.875,77.72"/>
<path fill="#3B4F56" d="M114.902,36.71h17.405v17.882h8.822c4.053,0,8.345-0.715,12.159-2.146c1.908-0.715,4.054-1.431,5.961-2.623
	c-2.385-3.338-3.814-7.392-4.053-11.206c-0.478-5.484,0.715-12.637,4.291-16.928l1.907-2.146l2.146,1.669
	c5.483,4.53,10.252,10.729,10.968,17.644c6.676-1.907,14.543-1.431,20.266,1.907l2.385,1.431l-1.192,2.384
	c-5.007,9.775-15.26,12.636-25.512,12.16c-15.259,37.672-48.162,55.554-88.218,55.554c-20.743,0-39.578-7.63-50.546-25.989
	l-0.238-0.238l-1.669-3.1c-3.577-8.105-4.769-16.928-4.054-25.75l0.238-2.622h15.021V36.71h17.404V19.306h35.049V1.662h21.458V36.71
	z"/>
<path fill="#06A7D8" d="M171.648,43.387c1.191-9.061-5.723-16.213-9.775-19.79c-4.769,5.722-5.723,20.505,1.907,26.704
	c-4.292,3.815-13.353,7.152-22.412,7.152H29.069c-0.954,9.537,0.716,18.598,4.769,25.988l1.192,2.385
	c0.715,1.431,1.669,2.623,2.622,4.053c4.53,0.239,8.822,0.478,12.875,0.239c7.63-0.239,13.829-1.192,18.598-2.623
	c0.715-0.238,1.431,0.239,1.669,0.716c0.238,0.715-0.238,1.43-0.715,1.668c-0.716,0.239-1.192,0.478-1.908,0.716l0,0
	c-3.814,0.954-7.629,1.669-12.875,2.146c0.239,0-0.238,0-0.238,0c-0.238,0-0.477,0-0.477,0c-1.907,0-4.292,0.238-6.438,0.238
	c-2.384,0-4.769,0-7.63-0.238l0,0c9.299,10.491,24.081,16.929,42.201,16.929c38.864,0,71.767-17.167,86.311-55.792
	c10.252,0.954,20.267-1.669,24.797-10.491C186.192,39.333,176.894,40.764,171.648,43.387"/>
<path fill="#34B7EA" d="M171.648,43.387c1.191-9.061-5.723-16.213-9.775-19.79c-4.769,5.722-5.723,20.505,1.907,26.704
	c-4.292,3.815-13.353,7.152-22.412,7.152H35.507c-0.477,14.783,5.007,25.988,14.782,32.665c7.63-0.239,13.829-1.192,18.598-2.623
	c0.715-0.238,1.431,0.239,1.669,0.716c0.238,0.715-0.238,1.43-0.716,1.668c-0.715,0.239-1.191,0.478-1.907,0.716l0,0
	c-3.814,0.954-8.106,1.907-13.113,2.146l-0.238-0.238c13.113,6.676,32.426,6.676,54.361-1.668
	c24.558-9.537,47.446-27.42,63.421-48.163C172.125,43.148,171.887,43.148,171.648,43.387"/>
<path fill="#118BBA" d="M29.069,69.137c0.716,5.245,2.146,10.014,4.53,14.306l1.192,2.384c0.715,1.431,1.669,2.623,2.622,4.054
	c4.53,0.238,8.822,0.477,12.875,0.238c7.63-0.238,13.829-1.192,18.598-2.623c0.715-0.238,1.431,0.239,1.669,0.716
	c0.238,0.715-0.238,1.43-0.954,1.669c-0.715,0.238-1.191,0.477-1.907,0.715l0,0c-3.814,0.954-8.106,1.907-13.113,2.146
	c-0.238,0-0.477,0-0.716,0c-1.907,0-4.291,0.238-6.438,0.238c-2.384,0-5.007,0-7.629-0.238
	c9.299,10.491,24.081,16.929,42.439,16.929c33.142,0,61.991-12.637,78.919-40.532H29.069z"/>
<path fill="#0199C4" d="M36.699,69.137c1.907,9.061,6.676,16.213,13.59,20.981c7.63-0.238,13.829-1.192,18.598-2.622
	c0.715-0.239,1.431,0.238,1.669,0.715c0.238,0.715-0.238,1.43-0.954,1.669c-0.715,0.238-1.191,0.477-1.907,0.715l0,0
	c-3.814,0.954-8.106,1.907-13.352,2.146c13.113,6.676,32.188,6.676,54.122-1.668c13.353-5.008,25.989-12.637,37.434-21.936H36.699
	L36.699,69.137z"/>
<path fill="#D4EDF0" d="M76.039,79.389c2.385,0,4.292,1.908,4.292,4.292s-1.907,4.292-4.292,4.292c-2.384,0-4.291-1.908-4.291-4.292
	C71.986,81.297,73.655,79.389,76.039,79.389"/>
<path fill="#3B4F56" d="M76.039,80.581c0.478,0,0.716,0,1.192,0.238c-0.477,0.238-0.715,0.716-0.715,0.954
	c0,0.715,0.477,1.191,1.191,1.191c0.478,0,0.954-0.238,1.192-0.715c0.238,0.238,0.238,0.715,0.238,1.191c0,1.67-1.431,3.1-3.1,3.1
	s-3.1-1.43-3.1-3.1C73.178,82.012,74.37,80.581,76.039,80.581"/>
<path fill="#3B4F56" d="M1.174,70.806h91.794h11.444h91.556c-4.292-1.192-13.353-2.623-11.922-8.106
	c-7.629,8.822-26.227,6.199-30.995,1.907c-5.245,7.63-35.764,4.769-37.671-1.192c-6.438,7.63-26.942,7.63-33.38,0
	c-2.146,5.961-32.664,8.822-37.671,1.192c-4.769,4.292-23.366,7.153-30.996-1.907C14.525,68.183,5.465,69.613,1.174,70.806"/>
<path fill="#C1DCDF" d="M87.245,109.669c-10.49-5.007-15.975-11.683-19.313-18.835c-3.814,1.191-8.583,1.906-13.828,2.145
	c-2.146,0-4.054,0.239-6.438,0.239c-2.623,0-5.246,0-8.106-0.239c9.537,9.537,21.22,16.929,42.916,16.929
	C84.146,109.669,85.576,109.669,87.245,109.669"/>
<path fill="#D4EDF0" d="M71.748,97.51c-1.431-1.908-2.861-4.292-3.815-6.676c-3.814,1.191-8.583,1.906-13.828,2.145
	C57.919,94.887,63.164,96.556,71.748,97.51"/>
<path fill="#01AAD0" d="M44.09,39.333h15.26v15.259H44.09V39.333z M45.282,40.525h1.192v12.637h-1.192V40.525z M47.667,40.525h1.191
	v12.637h-1.191V40.525z M49.813,40.525h1.192v12.637h-1.192V40.525z M52.197,40.525h1.191v12.637h-1.191V40.525z M54.581,40.525
	h1.192v12.637h-1.192V40.525z M56.727,40.525h1.192v12.637h-1.192V40.525z"/>
<path fill="#01AAD0" d="M61.495,21.928h15.26v15.259h-15.26V21.928z M62.926,23.12h1.192v12.637h-1.192V23.12z M65.072,23.12h1.191
	v12.637h-1.191V23.12z M67.456,23.12h1.192v12.637h-1.192V23.12z M69.602,23.12h1.192v12.637h-1.192V23.12z M71.986,23.12h1.191
	v12.637h-1.191V23.12z M74.37,23.12h1.192v12.637H74.37V23.12z"/>
<path fill="#27C3ED" d="M61.495,39.333h15.26v15.259h-15.26V39.333z M62.926,40.525h1.192v12.637h-1.192V40.525z M65.072,40.525
	h1.191v12.637h-1.191V40.525z M67.456,40.525h1.192v12.637h-1.192V40.525z M69.602,40.525h1.192v12.637h-1.192V40.525z
	 M71.986,40.525h1.191v12.637h-1.191V40.525z M74.37,40.525h1.192v12.637H74.37V40.525z"/>
<path fill="#01AAD0" d="M79.139,39.333h15.26v15.259h-15.26V39.333z M80.331,40.525h1.192v12.637h-1.192V40.525z M82.715,40.525
	h1.192v12.637h-1.192V40.525z M84.861,40.525h1.431v12.637H85.1V40.525H84.861z M87.245,40.525h1.192v12.637h-1.192V40.525z
	 M89.63,40.525h1.192v12.637H89.63V40.525z M91.775,40.525h1.192v12.637h-1.192V40.525z"/>
<path fill="#27C3ED" d="M79.139,21.928h15.26v15.259h-15.26V21.928z M80.331,23.12h1.192v12.637h-1.192V23.12z M82.715,23.12h1.192
	v12.637h-1.192V23.12z M84.861,23.12h1.431v12.637H85.1V23.12H84.861z M87.245,23.12h1.192v12.637h-1.192V23.12z M89.63,23.12h1.192
	v12.637H89.63V23.12z M91.775,23.12h1.192v12.637h-1.192V23.12z"/>
<path fill="#27C3ED" d="M96.544,39.333h15.259v15.259H96.544V39.333z M97.975,40.525h1.192v12.637h-1.192V40.525z M100.12,40.525
	h1.192v12.637h-1.192V40.525z M102.505,40.525h1.192v12.637h-1.192V40.525z M104.65,40.525h1.192v12.637h-1.192V40.525z
	 M107.035,40.525h1.191v12.637h-1.191V40.525z M109.419,40.525h1.192v12.637h-1.192V40.525z"/>
<path fill="#01AAD0" d="M96.544,21.928h15.259v15.259H96.544V21.928z M97.975,23.12h1.192v12.637h-1.192V23.12z M100.12,23.12h1.192
	v12.637h-1.192V23.12z M102.505,23.12h1.192v12.637h-1.192V23.12z M104.65,23.12h1.192v12.637h-1.192V23.12z M107.035,23.12h1.191
	v12.637h-1.191V23.12z M109.419,23.12h1.192v12.637h-1.192V23.12z"/>
<path fill="#27C3ED" d="M96.544,4.285h15.259v15.259H96.544V4.285z M97.975,5.477h1.192v12.875h-1.192V5.477z M100.12,5.477h1.192
	v12.875h-1.192V5.477z M102.505,5.477h1.192v12.875h-1.192V5.477z M104.65,5.477h1.192v12.875h-1.192V5.477z M107.035,5.477h1.191
	v12.875h-1.191V5.477z M109.419,5.477h1.192v12.875h-1.192V5.477z"/>
<path fill="#01AAD0" d="M114.188,39.333h15.021v15.259h-15.259V39.333H114.188z M115.38,40.525h1.192v12.637h-1.192V40.525z
	 M117.764,40.525h1.192v12.637h-1.192V40.525z M119.91,40.525h1.191v12.637h-1.191V40.525z M122.294,40.525h1.192v12.637h-1.192
	V40.525z M124.439,40.525h1.192v12.637h-1.192V40.525z M126.824,40.525h1.192v12.637h-1.192V40.525z"/>
</svg>
